<?xml version="1.0" encoding="UTF-8" standalone="no"?>
<!-- Created with Inkscape (http://www.inkscape.org/) -->

<svg
   width="191.91122mm"
   height="191.91122mm"
   viewBox="0 0 191.91122 191.91122"
   version="1.1"
   id="svg1"
   xml:space="preserve"
   xmlns="http://www.w3.org/2000/svg"
   xmlns:svg="http://www.w3.org/2000/svg"><defs
     id="defs1"><filter
       style="color-interpolation-filters:sRGB"
       id="filter1"
       x="-0.080738759"
       y="-0.060554345"
       width="1.1614775"
       height="1.1211087"><feGaussianBlur
         stdDeviation="4 3"
         result="blur"
         id="feGaussianBlur1" /></filter></defs><g
     id="layer1"
     transform="translate(-9.1467386,-57.160493)"
     style="display:inline"><rect
       style="display:inline;opacity:0.75;fill:#000000;fill-opacity:1;stroke-width:0.304137;filter:url(#filter1)"
       id="rect1"
       width="118.902"
       height="118.90146"
       x="119.60149"
       y="-29.03541"
       rx="7"
       transform="rotate(45,-6.0355342,2.5000001)" /><rect
       style="display:inline;fill:#ffffff;fill-opacity:1;stroke-width:0.304137"
       id="rect10"
       width="118.902"
       height="118.90146"
       x="119.60149"
       y="-29.03541"
       rx="7"
       transform="rotate(45)" /><path
       id="rect8"
       style="display:inline;fill:#c1070b;fill-opacity:1;stroke-width:0.28984"
       d="m 123.99667,-24.640162 c -0.99002,0.990023 -1.60085,2.359395 -1.60085,3.876608 l 3.6e-4,102.3576 c 0,3.034427 2.44304,5.477459 5.47746,5.477459 h 102.35724 c 3.03443,0 5.47746,-2.443032 5.47746,-5.477459 l 3.6e-4,-102.3576 c 0,-3.034427 -2.44303,-5.477459 -5.47746,-5.477459 H 127.87328 c -1.51722,0 -2.88659,0.610828 -3.87661,1.600851 z m 7.8464,7.846396 c 0.54225,-0.54225 1.29201,-0.876978 2.12301,-0.876978 h 90.17236 c 1.662,0 2.99999,1.337996 2.99999,2.999996 l -3.6e-4,90.171988 c 0,1.662 -1.338,2.999996 -3,2.999996 h -90.17162 c -1.662,0 -3,-1.337996 -3,-2.999996 l -3.6e-4,-90.171988 c 0,-0.831 0.33473,-1.580768 0.87698,-2.123018 z"
       transform="rotate(45)" /><path
       id="rect11"
       style="display:inline;fill:#000000;fill-opacity:1;stroke-width:0.281216"
       d="m 97.112945,110.2324 a 5.7927799,5.7927799 0 0 0 -5.792411,5.79293 5.7927799,5.7927799 0 0 0 5.792411,5.79293 5.7927799,5.7927799 0 0 0 5.792925,-5.79293 5.7927799,5.7927799 0 0 0 -5.792925,-5.79293 z m -10.014892,9.81025 c -0.279146,-0.0119 -0.568384,-0.0105 -0.873332,0.003 -0.813207,0.0349 -1.737993,0.15392 -2.880961,0.33331 -1.527961,0.23981 -3.898223,0.5985 -5.267379,0.79685 -3.237058,0.46898 -3.364888,0.58076 -6.045109,5.2989 -1.239033,2.18115 -2.290828,4.00974 -2.337325,4.06384 -0.65962,1.25657 -0.994628,2.30513 -0.959114,2.54765 0.332473,2.27035 1.150483,3.14451 2.942456,3.14451 0.913728,0 1.492131,-0.1505 1.860868,-0.48421 0.06548,-0.0648 0.176268,-0.2044 0.311092,-0.38447 l 21.351152,11.58482 c 0.109231,0.26003 0.09537,0.2472 0.188619,0.40514 1.185519,2.07849 2.627351,2.8786 4.093807,2.27118 0.107599,-0.0673 0.208885,-0.12974 0.304374,-0.18758 l 10.132199,5.49785 -2.85667,5.28598 8.54418,4.61264 a 7.5000001,7.5 57.688932 0 0 0.001,5.2e-4 7.5000001,7.5 57.688932 0 0 0.24133,0.13642 7.5000001,7.5 57.688932 0 0 10.1663,-3.02307 7.5000001,7.5 57.688932 0 0 -3.02307,-10.16682 l 0.002,-0.006 -8.79998,-4.7501 -2.8484,5.271 -9.74463,-5.28702 c -0.091,-0.86211 -1.16908,-3.36216 -2.64635,-6.62647 l -1.368392,-3.02359 -0.135909,-5.0462 c -0.190612,-7.09183 -0.274823,-7.29238 -4.052982,-9.65419 -2.886898,-1.80465 -4.345888,-2.53072 -6.299874,-2.6138 z m -5.71593,7.27708 c 0.183173,0.0111 0.276374,0.0773 0.276469,0.23771 v 5.2e-4 l -3.584794,6.68331 -2.551266,-1.38441 0.73794,-1.30431 c 1.694427,-2.9951 2.302087,-3.89025 2.654618,-3.90726 0.180078,-0.009 0.893171,-0.10844 1.584399,-0.22221 0.393514,-0.0648 0.688671,-0.11507 0.882634,-0.10335 z m 26.973547,8.50439 v 5.2e-4 c -0.0874,-1.9e-4 -0.17443,0.0106 -0.2589,0.0331 -0.53369,0.14243 -0.85088,0.69052 -0.70848,1.22421 l 2.70526,10.14512 -0.3545,0.61237 0.7059,2.64686 1.89756,-3.59099 -0.31678,-0.18345 -2.70526,-10.14512 c -0.11648,-0.43735 -0.5122,-0.74193 -0.9648,-0.74259 z m 31.1273,0 a 0.99994003,0.99994003 0 0 0 -0.9648,0.74259 l -2.70526,10.14563 -0.61185,0.3545 -3.4153,12.80749 h -0.86609 l -2.28823,0.032 c -1.3833,4.67104 -3.136,6.48792 -7.136,7.48792 -2.57801,0.6445 -6.54595,-0.85477 -9.51208,-2.45567 -7.86255,-4.2436 -7.29249,-3.73624 -6.41615,-5.06429 h -2.6479 l -0.99994,5.2e-4 c -2.000005,1 -2.000008,9.99985 0,10.99984 3.99999,0 38.0001,1e-4 41.80365,-0.003 2.19645,-0.99721 2.19637,-9.99727 0.19637,-10.99726 h -8.00003 -1.02836 l 3.20859,-12.03492 -0.35398,-0.61185 2.70474,-10.14564 a 1.0001933,1.0001933 0 0 0 -0.70848,-1.22421 0.99994003,0.99994003 0 0 0 -0.2589,-0.0336 z m -48.442522,0.63355 c 0.167204,0.002 0.240807,0.36164 0.240812,1.07332 2e-6,0.78708 0.326659,1.81392 1.058333,3.32693 0.268635,0.55551 0.511969,1.06092 0.732772,1.52084 l -4.098458,-2.22364 1.950269,-3.65197 c 0.04295,-0.0305 0.08163,-0.0458 0.116272,-0.0455 z m -15.024923,2.31511 c -1.485375,2.51422 -1.875561,4.17345 -2.106848,7.71787 -0.161433,2.02608 0.03079,2.95296 -0.119889,4.8364 -0.260464,3.25582 -0.394998,3.7646 -1.430921,5.40742 -0.422677,0.67033 -3.815952,5.8569 -4.665348,7.13083 -2.86827,4.30194 -2.124058,7.4226 1.775085,7.44399 2.45187,-0.43439 1.679864,0.63596 9.234579,-10.789 2.252127,-3.40588 2.40767,-3.86639 2.779158,-8.24394 0.343816,-4.0514 0.373804,-4.13081 1.156519,-3.05615 0.315563,0.43326 1.657735,2.07649 2.982764,3.65146 l 2.409155,2.86339 0.189652,6.27042 c 0.231153,7.63703 0.468534,8.46196 2.664954,9.26817 1.629142,0.59799 3.40157,-0.0559 4.400765,-1.62368 0.7767,-1.21868 0.446,-15.45138 -0.395325,-17.01653 -2.473518,-4.6016 -5.349765,-6.78788 -8.970512,-8.70024 -7.912835,-4.17926 -9.693298,-5.15472 -9.903788,-5.16041 z m 59.903835,23.10195 c 0.55224,3e-5 0.99991,0.4477 0.99994,0.99994 2.5e-4,0.55244 -0.4475,1.00042 -0.99994,1.00045 -0.55244,-3e-5 -1.00019,-0.44801 -0.99994,-1.00045 3e-5,-0.55223 0.44771,-0.9999 0.99994,-0.99994 z m 4.00027,0 c 0.55224,3e-5 0.99991,0.4477 0.99994,0.99994 2.5e-4,0.55244 -0.4475,1.00042 -0.99994,1.00045 -0.55244,-3e-5 -1.00018,-0.44801 -0.99993,-1.00045 3e-5,-0.55224 0.44769,-0.99991 0.99993,-0.99994 z" /></g></svg>
