<?xml version="1.0" encoding="UTF-8" standalone="no"?>
<svg
   width="159.39999"
   height="159.39999"
   viewBox="0 0 15.939999 15.94"
   fill="currentColor"
   version="1.1"
   id="svg1"
   xmlns="http://www.w3.org/2000/svg"
   xmlns:svg="http://www.w3.org/2000/svg">
  <defs
     id="defs1" />
  <path
     id="path1"
     d="M 11.30592,2.9504387 A 6,6 0 0 0 2.854415,4.8611404 l 0.8665328,0.500293 a 5,5 0 0 1 9.2688252,2.3513927 l -1.5e-4,0.00104 -1.246781,-1.2401208 -0.753298,0.7664681 2.108237,2.0917865 0.760117,0.00336 2.071856,-2.0881698 -0.756655,-0.7534958 -1.183716,1.1904892 A 6,6 0 0 0 11.30592,2.9504387 Z m 1.075068,7.4101943 A 5,5 0 0 1 3.0119329,8.3699521 L 4.1892569,9.5397515 4.942652,8.7731141 2.8342168,6.6715153 2.0741972,6.6679858 0.00234096,8.7561556 0.78904222,9.5193302 2.0041241,8.2756842 A 6,6 0 0 0 13.247182,10.860731 Z" />
</svg>
