<?xml version="1.0" encoding="UTF-8" standalone="no"?>
<!-- Created with Inkscape (http://www.inkscape.org/) -->

<svg
   width="50mm"
   height="50mm"
   viewBox="0 0 49.999999 49.999999"
   version="1.1"
   id="svg1"
   xml:space="preserve"
   xmlns="http://www.w3.org/2000/svg"
   xmlns:svg="http://www.w3.org/2000/svg"><defs
     id="defs1" /><g
     id="layer1"
     transform="translate(-97.90755,-128.34946)"
     style="display:inline"><path
       id="path27-1"
       style="display:inline;fill:#000000;fill-opacity:1;stroke-width:1.47037"
       d="M 8.650118,7.4749959 A 0.99994003,0.99994003 0 0 0 8.3912191,7.5085859 1.0001933,1.0001933 0 0 0 7.6827352,8.7328006 L 10.38748,18.877917 10.033496,19.490283 10.632943,21.737691 13.01781,19.038114 12.93203,18.717204 12.320178,18.362703 9.614917,8.2175863 A 0.99994003,0.99994003 0 0 0 8.650118,7.4749959 Z m 32.925122,0 a 0.99994003,0.99994003 0 0 0 -0.964799,0.7425904 l -2.704744,10.1451167 -0.612366,0.354501 -0.131775,0.49351 2.390035,2.683557 0.640788,-2.403988 L 39.837878,18.877917 42.54314,8.7328003 A 1.0001933,1.0001933 0 0 0 41.834139,7.5085856 0.99994003,0.99994003 0 0 0 41.57524,7.4749959 Z M 24.973669,8.9229696 12.811621,22.626526 l 9.559623,-0.01757 v 12.995589 h 5.249809 V 22.601204 l 9.588562,-0.01757 z m 13.7542,16.0589684 -3.106271,0.0057 -1.743563,6.537586 c -1.20612,-1.2e-4 -2.412273,-3.87e-4 -3.618383,-5.17e-4 v 6.430615 H 19.726961 v -6.431649 c -1.12665,-8e-5 -2.253505,2e-5 -3.380155,0 l -1.735295,-6.508646 -3.10317,0.0057 1.733745,6.502962 c -3.07669,1.6e-4 -6.1537546,8.57e-4 -9.2304446,0.0021 v -5.16e-4 c -2.000003,1 -2.000006,9.999855 0,10.999845 3.99999,0 38.0000996,5.16e-4 41.8036496,-0.0026 2.19645,-0.99721 2.196371,-9.997271 0.196371,-10.997261 -3.00956,6.4e-4 -6.01882,6.46e-4 -9.02839,5.16e-4 z m -0.716236,8.543147 c 0.55224,3e-5 0.999909,0.447699 0.999939,0.999939 2.5e-4,0.55244 -0.447499,1.000426 -0.999939,1.000456 -0.55244,-3e-5 -1.000189,-0.448016 -0.999939,-1.000456 3e-5,-0.55223 0.447709,-0.999899 0.999939,-0.999939 z m 4.000273,0 c 0.55224,3e-5 0.999909,0.447699 0.999939,0.999939 2.5e-4,0.55244 -0.447499,1.000426 -0.999939,1.000456 -0.55244,-3e-5 -1.000189,-0.448016 -0.999939,-1.000456 3e-5,-0.55224 0.447699,-0.999909 0.999939,-0.999939 z"
       transform="translate(97.90755,128.34946)" /></g></svg>
